<?xml version="1.0" encoding="utf-8"?>
<!-- Generator: Adobe Illustrator 23.1.1, SVG Export Plug-In . SVG Version: 6.00 Build 0)  -->
<svg version="1.1" id="Layer_1" xmlns="http://www.w3.org/2000/svg" xmlns:xlink="http://www.w3.org/1999/xlink" x="0px" y="0px"
	 viewBox="0 0 576 403.2" style="enable-background:new 0 0 576 403.2;" xml:space="preserve">
<style type="text/css">
	.st0{fill:#3AB549;}
</style>
<path class="st0" d="M501.5,384.6h-427c-33.7,0-61-27.3-61-61v-244c0-33.7,27.3-61,61-61h427c33.7,0,61,27.3,61,61v244
	C562.5,357.2,535.1,384.6,501.5,384.6z M135.5,129.2V91c0-6.3-5.1-11.4-11.4-11.4H85.9c-6.3,0-11.4,5.1-11.4,11.4v38.1
	c0,6.3,5.1,11.4,11.4,11.4h38.1C130.4,140.6,135.5,135.5,135.5,129.2z M227,129.2V91c0-6.3-5.1-11.4-11.4-11.4h-38.1
	c-6.3,0-11.4,5.1-11.4,11.4v38.1c0,6.3,5.1,11.4,11.4,11.4h38.1C221.9,140.6,227,135.5,227,129.2z M318.5,129.2V91
	c0-6.3-5.1-11.4-11.4-11.4h-38.1c-6.3,0-11.4,5.1-11.4,11.4v38.1c0,6.3,5.1,11.4,11.4,11.4h38.1
	C313.4,140.6,318.5,135.5,318.5,129.2z M410,129.2V91c0-6.3-5.1-11.4-11.4-11.4h-38.1c-6.3,0-11.4,5.1-11.4,11.4v38.1
	c0,6.3,5.1,11.4,11.4,11.4h38.1C404.9,140.6,410,135.5,410,129.2z M501.5,129.2V91c0-6.3-5.1-11.4-11.4-11.4h-38.1
	c-6.3,0-11.4,5.1-11.4,11.4v38.1c0,6.3,5.1,11.4,11.4,11.4h38.1C496.4,140.6,501.5,135.5,501.5,129.2z M135.5,220.7v-38.1
	c0-6.3-5.1-11.4-11.4-11.4H85.9c-6.3,0-11.4,5.1-11.4,11.4v38.1c0,6.3,5.1,11.4,11.4,11.4h38.1C130.4,232.1,135.5,227,135.5,220.7z
	 M227,220.7v-38.1c0-6.3-5.1-11.4-11.4-11.4h-38.1c-6.3,0-11.4,5.1-11.4,11.4v38.1c0,6.3,5.1,11.4,11.4,11.4h38.1
	C221.9,232.1,227,227,227,220.7z M318.5,220.7v-38.1c0-6.3-5.1-11.4-11.4-11.4h-38.1c-6.3,0-11.4,5.1-11.4,11.4v38.1
	c0,6.3,5.1,11.4,11.4,11.4h38.1C313.4,232.1,318.5,227,318.5,220.7z M410,220.7v-38.1c0-6.3-5.1-11.4-11.4-11.4h-38.1
	c-6.3,0-11.4,5.1-11.4,11.4v38.1c0,6.3,5.1,11.4,11.4,11.4h38.1C404.9,232.1,410,227,410,220.7z M501.5,220.7v-38.1
	c0-6.3-5.1-11.4-11.4-11.4h-38.1c-6.3,0-11.4,5.1-11.4,11.4v38.1c0,6.3,5.1,11.4,11.4,11.4h38.1C496.4,232.1,501.5,227,501.5,220.7z
	 M410,312.2V274c0-6.3-5.1-11.4-11.4-11.4H177.4c-6.3,0-11.4,5.1-11.4,11.4v38.1c0,6.3,5.1,11.4,11.4,11.4h221.1
	C404.9,323.6,410,318.5,410,312.2z"/>
</svg>
